<svg xmlns="http://www.w3.org/2000/svg" viewBox="0 0 64 64"><title>Artboard-34</title><g id="Diamond"><polygon points="32.711 64 64 30 44.71 30 32.711 64" style="fill:#232328"/><polygon points="64 28 55.238 16.031 46.031 28 64 28" style="fill:#232328"/><polygon points="53.508 15 32.437 15 43.931 27.45 53.508 15" style="fill:#232328"/><polygon points="32 30 21.41 30 32 59.99 42.59 30 32 30" style="fill:#232328"/><polygon points="0 30 31.289 64 19.29 30 0 30" style="fill:#232328"/><polygon points="32 28 41.72 28 32 17.47 22.28 28 32 28" style="fill:#232328"/><polygon points="8.762 16.031 0 28 17.969 28 8.762 16.031" style="fill:#232328"/><polygon points="31.563 15 10.492 15 20.069 27.45 31.563 15" style="fill:#232328"/><path d="M32,13a1,1,0,0,1-1-1V1a1,1,0,0,1,2,0V12A1,1,0,0,1,32,13Z" style="fill:#232328"/><path d="M40,13a1,1,0,0,1-.759-1.65l6-7a1,1,0,0,1,1.518,1.3l-6,7A.993.993,0,0,1,40,13Z" style="fill:#232328"/><path d="M24,13a.993.993,0,0,1-.759-.35l-6-7a1,1,0,0,1,1.518-1.3l6,7A1,1,0,0,1,24,13Z" style="fill:#232328"/></g></svg>